<?xml version="1.0" encoding="utf-8"?>
<!-- Generator: Adobe Illustrator 25.2.3, SVG Export Plug-In . SVG Version: 6.00 Build 0)  -->
<svg version="1.1" id="Capa_1" xmlns="http://www.w3.org/2000/svg" xmlns:xlink="http://www.w3.org/1999/xlink" x="0px" y="0px"
	 viewBox="0 0 147.61 88.18" style="enable-background:new 0 0 147.61 88.18;" xml:space="preserve">
<style type="text/css">
	.st0{display:none;}
	.st1{display:inline;fill:white;}
	.st2{fill:#050104;}
</style>
<g class="st0">
	<rect x="-153.73" y="-72.06" class="st1" width="338.56" height="213.98"/>
	<line class="st1" x1="-153.73" y1="106.26" x2="184.84" y2="106.26"/>
	<line class="st1" x1="-153.73" y1="70.59" x2="184.84" y2="70.59"/>
	<line class="st1" x1="-153.73" y1="34.93" x2="184.84" y2="34.93"/>
	<line class="st1" x1="-153.73" y1="-0.74" x2="184.84" y2="-0.74"/>
	<line class="st1" x1="-153.73" y1="-36.4" x2="184.84" y2="-36.4"/>
	<line class="st1" x1="128.41" y1="-72.06" x2="128.41" y2="141.92"/>
	<line class="st1" x1="71.98" y1="-72.06" x2="71.98" y2="141.92"/>
	<line class="st1" x1="15.56" y1="-72.06" x2="15.56" y2="141.92"/>
	<line class="st1" x1="-40.87" y1="-72.06" x2="-40.87" y2="141.92"/>
	<line class="st1" x1="-97.3" y1="-72.06" x2="-97.3" y2="141.92"/>
</g>
<path class="st2" d="M102.7,28.86c-4.22,5.06-14.35,13.9-14.35,13.9L52.84,77.16l9.01,8.35l35.16-34.06c0,0,3.93,5.71,10.17,6.73
	c6.24,1.03,22.32-16.02,25.59-20.65c3.27-4.63,12.56-20.22,11.93-21.56c-0.62-1.35-19.6-11.76-22.82-11.32S102.7,28.86,102.7,28.86z
	"/>
<path d="M55.45,58.95L22.27,27.22c0,0-13.48-15.28-11.69-18.17c1.79-2.89,12.4,0.49,12.4,0.49l29,16.54l17.3,14.45l0.92,0.77
	c-2.05,2.85-4.1,5.69-6.15,8.54c1.61,1.3,3.23,2.59,4.84,3.89l24.95,20.47l-8.27,9.91L55.45,58.95z"/>
<g class="st0">
	<rect x="-377.42" y="-105.22" class="st1" width="69.8" height="17.59"/>
	<line class="st1" x1="-377.42" y1="-90.57" x2="-307.62" y2="-90.57"/>
	<line class="st1" x1="-377.42" y1="-93.5" x2="-307.62" y2="-93.5"/>
	<line class="st1" x1="-377.42" y1="-96.43" x2="-307.62" y2="-96.43"/>
	<line class="st1" x1="-377.42" y1="-99.36" x2="-307.62" y2="-99.36"/>
	<line class="st1" x1="-377.42" y1="-102.29" x2="-307.62" y2="-102.29"/>
	<line class="st1" x1="-319.25" y1="-105.22" x2="-319.25" y2="-87.64"/>
	<line class="st1" x1="-330.89" y1="-105.22" x2="-330.89" y2="-87.64"/>
	<line class="st1" x1="-342.52" y1="-105.22" x2="-342.52" y2="-87.64"/>
	<line class="st1" x1="-354.15" y1="-105.22" x2="-354.15" y2="-87.64"/>
	<line class="st1" x1="-365.79" y1="-105.22" x2="-365.79" y2="-87.64"/>
</g>
<g class="st0">
	<rect x="-307.62" y="-87.64" class="st1" width="7.15" height="18.69"/>
	<line class="st1" x1="-307.62" y1="-72.06" x2="-300.47" y2="-72.06"/>
	<line class="st1" x1="-307.62" y1="-75.18" x2="-300.47" y2="-75.18"/>
	<line class="st1" x1="-307.62" y1="-78.29" x2="-300.47" y2="-78.29"/>
	<line class="st1" x1="-307.62" y1="-81.41" x2="-300.47" y2="-81.41"/>
	<line class="st1" x1="-307.62" y1="-84.52" x2="-300.47" y2="-84.52"/>
	<line class="st1" x1="-301.66" y1="-87.64" x2="-301.66" y2="-68.95"/>
	<line class="st1" x1="-302.85" y1="-87.64" x2="-302.85" y2="-68.95"/>
	<line class="st1" x1="-304.05" y1="-87.64" x2="-304.05" y2="-68.95"/>
	<line class="st1" x1="-305.24" y1="-87.64" x2="-305.24" y2="-68.95"/>
	<line class="st1" x1="-306.43" y1="-87.64" x2="-306.43" y2="-68.95"/>
</g>
</svg>
